<mxfile host="app.diagrams.net" agent="Mozilla/5.0 (X11; Linux x86_64; rv:133.0) Gecko/20100101 Firefox/133.0" scale="1" border="0" version="26.0.2">
  <diagram name="Page-1" id="lqh_Il7PUDTA4zO0Oj97">
    <mxGraphModel dx="1098" dy="1240" grid="0" gridSize="10" guides="1" tooltips="1" connect="1" arrows="1" fold="1" page="0" pageScale="1" pageWidth="850" pageHeight="1100" math="0" shadow="0">
      <root>
        <mxCell id="0" />
        <mxCell id="1" parent="0" />
        <mxCell id="Nd5IJ-L-UjgMi4WhHVAJ-10" value="" style="edgeStyle=none;curved=1;rounded=0;orthogonalLoop=1;jettySize=auto;html=1;fontSize=16;startSize=8;endSize=8;endArrow=none;endFill=0;" parent="1" source="Nd5IJ-L-UjgMi4WhHVAJ-6" target="Nd5IJ-L-UjgMi4WhHVAJ-8" edge="1">
          <mxGeometry relative="1" as="geometry" />
        </mxCell>
        <mxCell id="Nd5IJ-L-UjgMi4WhHVAJ-3" value="a" style="ellipse;whiteSpace=wrap;html=1;fontSize=16;fillColor=#f8cecc;strokeColor=#b85450;" parent="1" vertex="1">
          <mxGeometry x="-26" y="58" width="60" height="60" as="geometry" />
        </mxCell>
        <mxCell id="Nd5IJ-L-UjgMi4WhHVAJ-4" style="edgeStyle=none;curved=1;rounded=0;orthogonalLoop=1;jettySize=auto;html=1;entryX=1;entryY=0.5;entryDx=0;entryDy=0;fontSize=16;startSize=8;endSize=8;" parent="1" source="Nd5IJ-L-UjgMi4WhHVAJ-3" target="Nd5IJ-L-UjgMi4WhHVAJ-3" edge="1">
          <mxGeometry relative="1" as="geometry" />
        </mxCell>
        <mxCell id="Nd5IJ-L-UjgMi4WhHVAJ-5" value="+" style="ellipse;whiteSpace=wrap;html=1;fontSize=16;fillColor=#f5f5f5;fontColor=#333333;strokeColor=#666666;" parent="1" vertex="1">
          <mxGeometry x="73" y="-136" width="60" height="60" as="geometry" />
        </mxCell>
        <mxCell id="Nd5IJ-L-UjgMi4WhHVAJ-6" value="x" style="ellipse;whiteSpace=wrap;html=1;fontSize=16;fillColor=#f5f5f5;fontColor=#333333;strokeColor=#666666;" parent="1" vertex="1">
          <mxGeometry x="16" y="-41" width="60" height="60" as="geometry" />
        </mxCell>
        <mxCell id="Nd5IJ-L-UjgMi4WhHVAJ-8" value="b" style="ellipse;whiteSpace=wrap;html=1;fontSize=16;fillColor=#f8cecc;strokeColor=#b85450;" parent="1" vertex="1">
          <mxGeometry x="63" y="58" width="60" height="60" as="geometry" />
        </mxCell>
        <mxCell id="Nd5IJ-L-UjgMi4WhHVAJ-14" value="" style="edgeStyle=none;curved=1;rounded=0;orthogonalLoop=1;jettySize=auto;html=1;fontSize=16;startSize=8;endSize=8;endArrow=none;endFill=0;" parent="1" source="Nd5IJ-L-UjgMi4WhHVAJ-5" target="Nd5IJ-L-UjgMi4WhHVAJ-6" edge="1">
          <mxGeometry relative="1" as="geometry">
            <mxPoint x="247" y="-90" as="sourcePoint" />
            <mxPoint x="219" y="-47" as="targetPoint" />
          </mxGeometry>
        </mxCell>
        <mxCell id="AVQ2NDTrIzkf_kXeqUEB-1" value="Q" style="ellipse;whiteSpace=wrap;html=1;fontSize=16;fillColor=#f5f5f5;fontColor=#333333;strokeColor=#666666;" vertex="1" parent="1">
          <mxGeometry x="73" y="-249" width="60" height="60" as="geometry" />
        </mxCell>
        <mxCell id="AVQ2NDTrIzkf_kXeqUEB-5" value="" style="edgeStyle=none;curved=1;rounded=0;orthogonalLoop=1;jettySize=auto;html=1;fontSize=16;startSize=8;endSize=8;endArrow=none;endFill=0;" edge="1" parent="1" source="AVQ2NDTrIzkf_kXeqUEB-1" target="Nd5IJ-L-UjgMi4WhHVAJ-5">
          <mxGeometry relative="1" as="geometry">
            <mxPoint x="97" y="-71" as="sourcePoint" />
            <mxPoint x="69" y="-28" as="targetPoint" />
          </mxGeometry>
        </mxCell>
        <mxCell id="AVQ2NDTrIzkf_kXeqUEB-6" value="" style="edgeStyle=none;curved=1;rounded=0;orthogonalLoop=1;jettySize=auto;html=1;fontSize=16;startSize=8;endSize=8;endArrow=none;endFill=0;" edge="1" parent="1" source="Nd5IJ-L-UjgMi4WhHVAJ-6" target="Nd5IJ-L-UjgMi4WhHVAJ-3">
          <mxGeometry relative="1" as="geometry">
            <mxPoint x="69" y="26" as="sourcePoint" />
            <mxPoint x="90" y="71" as="targetPoint" />
          </mxGeometry>
        </mxCell>
        <mxCell id="AVQ2NDTrIzkf_kXeqUEB-7" value="c" style="ellipse;whiteSpace=wrap;html=1;fontSize=16;fillColor=#f8cecc;strokeColor=#b85450;" vertex="1" parent="1">
          <mxGeometry x="142" y="-41" width="60" height="60" as="geometry" />
        </mxCell>
        <mxCell id="AVQ2NDTrIzkf_kXeqUEB-8" value="" style="edgeStyle=none;curved=1;rounded=0;orthogonalLoop=1;jettySize=auto;html=1;fontSize=16;startSize=8;endSize=8;endArrow=none;endFill=0;" edge="1" parent="1" source="Nd5IJ-L-UjgMi4WhHVAJ-5" target="AVQ2NDTrIzkf_kXeqUEB-7">
          <mxGeometry relative="1" as="geometry">
            <mxPoint x="98" y="-70" as="sourcePoint" />
            <mxPoint x="71" y="-27" as="targetPoint" />
          </mxGeometry>
        </mxCell>
      </root>
    </mxGraphModel>
  </diagram>
</mxfile>
